<mxfile host="app.diagrams.net" modified="2023-05-17T10:33:46.479Z" agent="Mozilla/5.0 (Windows NT 10.0; Win64; x64) AppleWebKit/537.36 (KHTML, like Gecko) Chrome/113.0.0.0 Safari/537.36" etag="haJWUiIpMOKBHW543DSG" version="21.3.2" type="device">
  <diagram name="Pagina-1" id="FlFpsOL4pc9py1d0J1KO">
    <mxGraphModel dx="1235" dy="684" grid="1" gridSize="10" guides="1" tooltips="1" connect="1" arrows="1" fold="1" page="1" pageScale="1" pageWidth="827" pageHeight="1169" math="0" shadow="0">
      <root>
        <mxCell id="0" />
        <mxCell id="1" parent="0" />
        <mxCell id="LfWoTvvUu_jZRKRtLNWc-34" value="" style="rounded=0;whiteSpace=wrap;html=1;fillColor=none;" vertex="1" parent="1">
          <mxGeometry x="55" y="200" width="210" height="400" as="geometry" />
        </mxCell>
        <mxCell id="LfWoTvvUu_jZRKRtLNWc-8" value="" style="edgeStyle=orthogonalEdgeStyle;rounded=0;orthogonalLoop=1;jettySize=auto;html=1;" edge="1" parent="1" source="LfWoTvvUu_jZRKRtLNWc-1" target="LfWoTvvUu_jZRKRtLNWc-2">
          <mxGeometry relative="1" as="geometry" />
        </mxCell>
        <mxCell id="LfWoTvvUu_jZRKRtLNWc-1" value="Input&lt;br&gt;Terminal" style="rounded=0;whiteSpace=wrap;html=1;" vertex="1" parent="1">
          <mxGeometry x="350" y="40" width="120" height="60" as="geometry" />
        </mxCell>
        <mxCell id="LfWoTvvUu_jZRKRtLNWc-9" value="" style="edgeStyle=orthogonalEdgeStyle;rounded=0;orthogonalLoop=1;jettySize=auto;html=1;" edge="1" parent="1" source="LfWoTvvUu_jZRKRtLNWc-2" target="LfWoTvvUu_jZRKRtLNWc-3">
          <mxGeometry relative="1" as="geometry" />
        </mxCell>
        <mxCell id="LfWoTvvUu_jZRKRtLNWc-2" value="Init" style="rounded=0;whiteSpace=wrap;html=1;" vertex="1" parent="1">
          <mxGeometry x="350" y="150" width="120" height="60" as="geometry" />
        </mxCell>
        <mxCell id="LfWoTvvUu_jZRKRtLNWc-12" value="" style="edgeStyle=orthogonalEdgeStyle;rounded=0;orthogonalLoop=1;jettySize=auto;html=1;" edge="1" parent="1" source="LfWoTvvUu_jZRKRtLNWc-3" target="LfWoTvvUu_jZRKRtLNWc-11">
          <mxGeometry relative="1" as="geometry" />
        </mxCell>
        <mxCell id="LfWoTvvUu_jZRKRtLNWc-3" value="Queue blocks" style="rounded=0;whiteSpace=wrap;html=1;" vertex="1" parent="1">
          <mxGeometry x="350" y="260" width="120" height="60" as="geometry" />
        </mxCell>
        <mxCell id="LfWoTvvUu_jZRKRtLNWc-10" value="Blocks in queue zetten" style="text;html=1;strokeColor=none;fillColor=none;align=center;verticalAlign=middle;whiteSpace=wrap;rounded=0;" vertex="1" parent="1">
          <mxGeometry x="490" y="260" width="110" height="60" as="geometry" />
        </mxCell>
        <mxCell id="LfWoTvvUu_jZRKRtLNWc-18" value="" style="edgeStyle=orthogonalEdgeStyle;rounded=0;orthogonalLoop=1;jettySize=auto;html=1;" edge="1" parent="1" source="LfWoTvvUu_jZRKRtLNWc-11" target="LfWoTvvUu_jZRKRtLNWc-13">
          <mxGeometry relative="1" as="geometry" />
        </mxCell>
        <mxCell id="LfWoTvvUu_jZRKRtLNWc-35" value="" style="edgeStyle=orthogonalEdgeStyle;rounded=0;orthogonalLoop=1;jettySize=auto;html=1;" edge="1" parent="1" source="LfWoTvvUu_jZRKRtLNWc-11" target="LfWoTvvUu_jZRKRtLNWc-34">
          <mxGeometry relative="1" as="geometry" />
        </mxCell>
        <mxCell id="LfWoTvvUu_jZRKRtLNWc-11" value="Workers" style="rounded=0;whiteSpace=wrap;html=1;" vertex="1" parent="1">
          <mxGeometry x="350" y="370" width="120" height="60" as="geometry" />
        </mxCell>
        <mxCell id="LfWoTvvUu_jZRKRtLNWc-16" value="" style="edgeStyle=orthogonalEdgeStyle;rounded=0;orthogonalLoop=1;jettySize=auto;html=1;" edge="1" parent="1" source="LfWoTvvUu_jZRKRtLNWc-13" target="LfWoTvvUu_jZRKRtLNWc-15">
          <mxGeometry relative="1" as="geometry" />
        </mxCell>
        <mxCell id="LfWoTvvUu_jZRKRtLNWc-13" value="Sorting" style="rounded=0;whiteSpace=wrap;html=1;" vertex="1" parent="1">
          <mxGeometry x="350" y="490" width="120" height="60" as="geometry" />
        </mxCell>
        <mxCell id="LfWoTvvUu_jZRKRtLNWc-15" value="Output" style="rounded=0;whiteSpace=wrap;html=1;" vertex="1" parent="1">
          <mxGeometry x="350" y="600" width="120" height="60" as="geometry" />
        </mxCell>
        <mxCell id="LfWoTvvUu_jZRKRtLNWc-25" value="" style="edgeStyle=orthogonalEdgeStyle;rounded=0;orthogonalLoop=1;jettySize=auto;html=1;" edge="1" parent="1" source="LfWoTvvUu_jZRKRtLNWc-23" target="LfWoTvvUu_jZRKRtLNWc-24">
          <mxGeometry relative="1" as="geometry" />
        </mxCell>
        <mxCell id="LfWoTvvUu_jZRKRtLNWc-23" value="Get from queue" style="rounded=0;whiteSpace=wrap;html=1;" vertex="1" parent="1">
          <mxGeometry x="100" y="227.5" width="120" height="60" as="geometry" />
        </mxCell>
        <mxCell id="LfWoTvvUu_jZRKRtLNWc-27" value="" style="edgeStyle=orthogonalEdgeStyle;rounded=0;orthogonalLoop=1;jettySize=auto;html=1;" edge="1" parent="1" source="LfWoTvvUu_jZRKRtLNWc-24" target="LfWoTvvUu_jZRKRtLNWc-26">
          <mxGeometry relative="1" as="geometry" />
        </mxCell>
        <mxCell id="LfWoTvvUu_jZRKRtLNWc-24" value="Bass eq" style="rounded=0;whiteSpace=wrap;html=1;" vertex="1" parent="1">
          <mxGeometry x="100" y="317.5" width="120" height="60" as="geometry" />
        </mxCell>
        <mxCell id="LfWoTvvUu_jZRKRtLNWc-29" value="" style="edgeStyle=orthogonalEdgeStyle;rounded=0;orthogonalLoop=1;jettySize=auto;html=1;" edge="1" parent="1" source="LfWoTvvUu_jZRKRtLNWc-26" target="LfWoTvvUu_jZRKRtLNWc-28">
          <mxGeometry relative="1" as="geometry" />
        </mxCell>
        <mxCell id="LfWoTvvUu_jZRKRtLNWc-26" value="Treble eq" style="rounded=0;whiteSpace=wrap;html=1;" vertex="1" parent="1">
          <mxGeometry x="100" y="417.5" width="120" height="60" as="geometry" />
        </mxCell>
        <mxCell id="LfWoTvvUu_jZRKRtLNWc-28" value="Save output" style="rounded=0;whiteSpace=wrap;html=1;" vertex="1" parent="1">
          <mxGeometry x="100" y="512.5" width="120" height="60" as="geometry" />
        </mxCell>
        <mxCell id="LfWoTvvUu_jZRKRtLNWc-31" value="single worker thread that handles one block" style="text;html=1;strokeColor=none;fillColor=none;align=center;verticalAlign=middle;whiteSpace=wrap;rounded=0;" vertex="1" parent="1">
          <mxGeometry x="500" y="370" width="110" height="60" as="geometry" />
        </mxCell>
        <mxCell id="LfWoTvvUu_jZRKRtLNWc-32" value="Sorts the threaded output" style="text;html=1;strokeColor=none;fillColor=none;align=center;verticalAlign=middle;whiteSpace=wrap;rounded=0;" vertex="1" parent="1">
          <mxGeometry x="500" y="490" width="110" height="60" as="geometry" />
        </mxCell>
        <mxCell id="LfWoTvvUu_jZRKRtLNWc-33" value="Init the values. for example (bass,treble and size inut file" style="text;html=1;strokeColor=none;fillColor=none;align=center;verticalAlign=middle;whiteSpace=wrap;rounded=0;" vertex="1" parent="1">
          <mxGeometry x="490" y="150" width="110" height="60" as="geometry" />
        </mxCell>
        <mxCell id="LfWoTvvUu_jZRKRtLNWc-36" value="queue denk over als de size niet even groot als bestand mag zijn." style="text;html=1;strokeColor=none;fillColor=none;align=center;verticalAlign=middle;whiteSpace=wrap;rounded=0;" vertex="1" parent="1">
          <mxGeometry x="90" y="40" width="210" height="30" as="geometry" />
        </mxCell>
        <mxCell id="LfWoTvvUu_jZRKRtLNWc-37" value="Worker thread? waarom alles in een thread" style="text;html=1;strokeColor=none;fillColor=none;align=center;verticalAlign=middle;whiteSpace=wrap;rounded=0;" vertex="1" parent="1">
          <mxGeometry x="90" y="100" width="210" height="30" as="geometry" />
        </mxCell>
      </root>
    </mxGraphModel>
  </diagram>
</mxfile>
